<?xml version="1.0" encoding="utf-8"?>
<!-- Generator: Adobe Illustrator 22.0.1, SVG Export Plug-In . SVG Version: 6.00 Build 0)  -->
<svg version="1.1" id="Layer_1" xmlns="http://www.w3.org/2000/svg" xmlns:xlink="http://www.w3.org/1999/xlink" x="0px" y="0px"
	 viewBox="0 0 220 50" style="enable-background:new 0 0 220 50;" xml:space="preserve">
<style type="text/css">
	.st0{fill:#007DC3;}
	.st1{fill:#FDBB30;}
</style>
<g>
	<g>
		<path class="st0" d="M126.7,26.5c0-4.9-2.1-9.3-9.2-9.3c-3.7,0-6.6,1-8.2,1.9l1.1,4c1.4-0.9,3.8-1.7,5.9-1.7c3.6,0,4.2,2,4.2,3.4
			v0.3c-7.9,0-12.9,2.7-12.9,8.3c0,3.4,2.5,6.6,6.9,6.6c2.7,0,5-1.1,6.3-2.8h0.1c0,0,0.9,3.8,5.9,2.3c-0.3-1.6-0.4-3.2-0.4-5.3
			L126.7,26.5L126.7,26.5z M120.9,31.7c0,0.4,0,0.8-0.1,1.2c-0.5,1.5-2,2.8-4,2.8c-1.6,0-2.9-0.9-2.9-2.9c0-3,3.3-3.8,7.1-3.8V31.7z
			"/>
		<path class="st0" d="M3.9,10.5c0,0,5.2,21.1,6,24.5c1,4,2.7,5.5,7.7,4.5l3.2-13.1c0.8-3.3,1.4-5.6,1.9-8.9h0.1
			c0.4,3.3,0.9,5.6,1.6,8.9c0,0,1.3,5.9,2,9.1c0.7,3.1,2.5,5.1,7.4,4l7.7-29h-6.2L32.6,23c-0.7,3.7-1.3,6.5-1.8,9.8h-0.1
			c-0.4-3.3-1-6.1-1.7-9.6l-2.7-12.8h-6.4L16.9,23c-0.8,3.8-1.6,6.8-2.1,10.1h-0.1c-0.5-3-1.2-6.9-1.9-10.5c0,0-1.7-8.9-2.3-12H3.9z
			"/>
		<path class="st0" d="M59,26.5c0-4.9-2.1-9.3-9.2-9.3c-3.7,0-6.6,1-8.2,1.9l1.1,4c1.4-0.9,3.8-1.7,5.9-1.7c3.6,0,4.2,2,4.2,3.4v0.3
			C45,25.1,40,27.9,40,33.4c0,3.4,2.5,6.6,6.9,6.6c2.7,0,5-1.1,6.3-2.8h0.1c0,0,0.9,3.8,5.9,2.3c-0.3-1.6-0.4-3.2-0.4-5.3V26.5z
			 M53.1,31.7c0,0.4,0,0.8-0.1,1.2c-0.5,1.5-2,2.8-4,2.8c-1.6,0-2.9-0.9-2.9-2.9c0-3,3.3-3.8,7.1-3.8V31.7z"/>
		<polygon class="st0" points="68.8,33.3 68.8,10.5 62.9,10.5 62.9,39.5 68.8,39.5 		"/>
		<path class="st0" d="M145.9,10.5c0,2.8,0,21.4,0,21.4c0,2.9,0.6,5,1.8,6.3c1,1.1,2.8,1.8,4.8,1.8c1.8,0,3.4-0.3,4.3-0.6l-0.1-4.6
			c-0.6,0.1-1.3,0.3-2.2,0.3c-2,0-2.7-1.3-2.7-3.9v-8.2h5.1v-5.6h-5.1v-6.9L145.9,10.5L145.9,10.5z"/>
		<path class="st0" d="M130.7,17.7v21.8h6.1V28.3c0-0.6,0-1.1,0.1-1.6c0.5-2.3,2.2-3.8,4.8-3.8c0.7,0,1.2,0.1,1.8,0.1v-5.7
			c-0.5-0.1-0.8-0.1-1.3-0.1c-2.3,0-4.8,1.5-5.9,4.6H136v-4.1L130.7,17.7L130.7,17.7z"/>
		<path class="st0" d="M72.9,17.7v21.8h5.9V26.7c0-0.6,0.1-1.2,0.3-1.8c0.5-1.3,1.7-2.8,3.6-2.8c2.4,0,3.5,2,3.5,4.9v12.4h5.9V26.6
			c0-0.6,0.1-1.3,0.3-1.8c0.5-1.5,1.8-2.7,3.5-2.7c2.4,0,3.6,2,3.6,5.4c0,0,0,9.2,0,11.9h5.9V26.7c0-6.8-3.4-9.5-7.3-9.5
			c-1.7,0-3.1,0.4-4.3,1.2c-1,0.6-2,1.5-2.8,2.7H91c-0.9-2.4-3.2-3.9-6-3.9c-3.7,0-5.3,1.9-6.3,3.4h-0.1v-3L72.9,17.7L72.9,17.7z"/>
	</g>
	<g>
		<g>
			<path class="st1" d="M188.7,16.8c1.2,0,2.1-0.6,2.3-1.4l1.1-13.1c0-1.3-1.5-2.4-3.4-2.4c-1.9,0-3.4,1.1-3.4,2.4l1.1,13.1
				C186.5,16.2,187.5,16.8,188.7,16.8L188.7,16.8z"/>
			<path class="st1" d="M181.6,20.9c0.6-1,0.5-2.1-0.1-2.7l-10.7-7.6c-1.1-0.6-2.8,0.1-3.8,1.8s-0.8,3.5,0.3,4.1l11.9,5.6
				C180,22.5,181,21.9,181.6,20.9L181.6,20.9z"/>
			<path class="st1" d="M195.7,20.9c0.6,1,1.6,1.5,2.3,1.3l11.9-5.6c1.1-0.6,1.3-2.5,0.3-4.1c-1-1.6-2.7-2.4-3.8-1.8l-10.7,7.6
				C195.2,18.8,195.2,19.9,195.7,20.9L195.7,20.9z"/>
		</g>
		<g>
			<path class="st1" d="M188.7,33.2c1.2,0,2.1,0.6,2.3,1.4l1.1,13.1c0,1.3-1.5,2.4-3.4,2.4c-1.9,0-3.4-1.1-3.4-2.4l1.1-13.1
				C186.5,33.8,187.5,33.2,188.7,33.2L188.7,33.2z"/>
			<path class="st1" d="M195.7,29.1c0.6-1,1.6-1.5,2.3-1.3l11.9,5.6c1.1,0.6,1.3,2.5,0.3,4.2c-1,1.6-2.7,2.4-3.8,1.8l-10.7-7.5
				C195.2,31.2,195.2,30.1,195.7,29.1L195.7,29.1z"/>
			<path class="st1" d="M181.6,29.1c0.6,1,0.5,2.1-0.1,2.7l-10.7,7.5c-1.1,0.6-2.8-0.1-3.8-1.8s-0.8-3.5,0.3-4.2l11.9-5.6
				C180,27.5,181,28.1,181.6,29.1L181.6,29.1z"/>
		</g>
		<g>
			<path class="st1" d="M214.2,36.6c1,0,1.9,0.8,1.9,1.9c0,1.1-0.8,1.9-1.9,1.9c-1.1,0-1.9-0.8-1.9-1.9
				C212.3,37.4,213.1,36.6,214.2,36.6L214.2,36.6z M214.2,36.9c-0.9,0-1.5,0.7-1.5,1.5s0.6,1.5,1.5,1.5c0.9,0,1.5-0.7,1.5-1.5
				C215.7,37.6,215,36.9,214.2,36.9L214.2,36.9z M213.8,39.5h-0.4v-2c0.2,0,0.4-0.1,0.7-0.1c0.3,0,0.5,0.1,0.6,0.1
				c0.1,0.1,0.2,0.3,0.2,0.4c0,0.3-0.2,0.4-0.4,0.5v0c0.2,0.1,0.3,0.2,0.3,0.5c0.1,0.3,0.1,0.4,0.1,0.5h-0.4
				c-0.1-0.1-0.1-0.3-0.1-0.5c0-0.2-0.2-0.3-0.5-0.3h-0.3V39.5z M213.8,38.4h0.3c0.3,0,0.5-0.1,0.5-0.3c0-0.2-0.1-0.3-0.5-0.3
				c-0.1,0-0.2,0-0.3,0L213.8,38.4L213.8,38.4z"/>
		</g>
	</g>
</g>
</svg>
